%TF.GenerationSoftware,KiCad,Pcbnew,9.0.7*%
%TF.CreationDate,2026-02-22T15:12:21-06:00*%
%TF.ProjectId,rover_pcb schematic,726f7665-725f-4706-9362-20736368656d,rev?*%
%TF.SameCoordinates,Original*%
%TF.FileFunction,Soldermask,Bot*%
%TF.FilePolarity,Negative*%
%FSLAX46Y46*%
G04 Gerber Fmt 4.6, Leading zero omitted, Abs format (unit mm)*
G04 Created by KiCad (PCBNEW 9.0.7) date 2026-02-22 15:12:21*
%MOMM*%
%LPD*%
G01*
G04 APERTURE LIST*
%ADD10R,1.700000X1.700000*%
%ADD11C,1.700000*%
%ADD12C,3.200000*%
G04 APERTURE END LIST*
D10*
%TO.C,J8*%
X174000000Y-96660000D03*
D11*
X174000000Y-94120000D03*
X174000000Y-91580000D03*
X174000000Y-89040000D03*
X174000000Y-86500000D03*
X174000000Y-83960000D03*
X159000000Y-83960000D03*
X159000000Y-86500000D03*
X159000000Y-89040000D03*
X159000000Y-91580000D03*
X159000000Y-94120000D03*
D10*
X159000000Y-96660000D03*
%TD*%
%TO.C,J3*%
X148000000Y-96700000D03*
D11*
X148000000Y-94160000D03*
X148000000Y-91620000D03*
X148000000Y-89080000D03*
X148000000Y-86540000D03*
X148000000Y-84000000D03*
X133000000Y-84000000D03*
X133000000Y-86540000D03*
X133000000Y-89080000D03*
X133000000Y-91620000D03*
X133000000Y-94160000D03*
D10*
X133000000Y-96700000D03*
%TD*%
D12*
%TO.C,H1*%
X82000000Y-54000000D03*
%TD*%
%TO.C,H3*%
X180000000Y-105000000D03*
%TD*%
%TO.C,H4*%
X82000000Y-105000000D03*
%TD*%
D10*
%TO.C,J2*%
X140500000Y-55500000D03*
D11*
X140500000Y-58040000D03*
X140500000Y-60580000D03*
X140500000Y-63120000D03*
X140500000Y-65660000D03*
X140500000Y-68200000D03*
X140500000Y-70740000D03*
X140500000Y-73280000D03*
X140500000Y-75820000D03*
%TD*%
D12*
%TO.C,H2*%
X180000000Y-54000000D03*
%TD*%
D10*
%TO.C,J9*%
X164500000Y-104500000D03*
D11*
X164500000Y-101960000D03*
%TD*%
D10*
%TO.C,J6*%
X138500000Y-104500000D03*
D11*
X138500000Y-101960000D03*
%TD*%
D10*
%TO.C,J1*%
X91500000Y-99240000D03*
D11*
X94040000Y-99240000D03*
X96580000Y-99240000D03*
X99120000Y-99240000D03*
X101660000Y-99240000D03*
X104200000Y-99240000D03*
X106740000Y-99240000D03*
X109280000Y-99240000D03*
X111820000Y-99240000D03*
X114360000Y-99240000D03*
X116900000Y-99240000D03*
X119440000Y-99240000D03*
X121980000Y-99240000D03*
X124520000Y-99240000D03*
X127060000Y-99240000D03*
D10*
X91500000Y-84000000D03*
D11*
X94040000Y-84000000D03*
X96580000Y-84000000D03*
X99120000Y-84000000D03*
X101660000Y-84000000D03*
X104200000Y-84000000D03*
X106740000Y-84000000D03*
X109280000Y-84000000D03*
X111820000Y-84000000D03*
X114360000Y-84000000D03*
X116900000Y-84000000D03*
X119440000Y-84000000D03*
X121980000Y-84000000D03*
X124520000Y-84000000D03*
X127060000Y-84000000D03*
%TD*%
D10*
%TO.C,J4*%
X91500000Y-55500000D03*
X91500000Y-75820000D03*
X129600000Y-55500000D03*
X129600000Y-75820000D03*
%TD*%
%TO.C,J5*%
X84500000Y-63500000D03*
D11*
X84500000Y-66040000D03*
%TD*%
D10*
%TO.C,J10*%
X168500000Y-104540000D03*
D11*
X168500000Y-102000000D03*
%TD*%
D10*
%TO.C,J7*%
X142500000Y-104540000D03*
D11*
X142500000Y-102000000D03*
%TD*%
M02*
