M48
; DRILL file {KiCad 9.0.7} date 2026-02-22T15:12:19-0600
; FORMAT={-:-/ absolute / metric / decimal}
; #@! TF.CreationDate,2026-02-22T15:12:19-06:00
; #@! TF.GenerationSoftware,Kicad,Pcbnew,9.0.7
; #@! TF.FileFunction,Plated,1,2,PTH
FMAT,2
METRIC
; #@! TA.AperFunction,Plated,PTH,ViaDrill
T1C0.300
; #@! TA.AperFunction,Plated,PTH,ComponentDrill
T2C1.000
%
G90
G05
T1
X88.5Y-76.0
X94.0Y-81.0
X99.0Y-102.0
X120.0Y-81.0
X120.5Y-94.0
X133.5Y-76.0
X137.5Y-82.5
T2
X84.5Y-63.5
X84.5Y-66.04
X91.5Y-55.5
X91.5Y-75.82
X91.5Y-84.0
X91.5Y-99.24
X94.04Y-84.0
X94.04Y-99.24
X96.58Y-84.0
X96.58Y-99.24
X99.12Y-84.0
X99.12Y-99.24
X101.66Y-84.0
X101.66Y-99.24
X104.2Y-84.0
X104.2Y-99.24
X106.74Y-84.0
X106.74Y-99.24
X109.28Y-84.0
X109.28Y-99.24
X111.82Y-84.0
X111.82Y-99.24
X114.36Y-84.0
X114.36Y-99.24
X116.9Y-84.0
X116.9Y-99.24
X119.44Y-84.0
X119.44Y-99.24
X121.98Y-84.0
X121.98Y-99.24
X124.52Y-84.0
X124.52Y-99.24
X127.06Y-84.0
X127.06Y-99.24
X129.6Y-55.5
X129.6Y-75.82
X133.0Y-84.0
X133.0Y-86.54
X133.0Y-89.08
X133.0Y-91.62
X133.0Y-94.16
X133.0Y-96.7
X138.5Y-101.96
X138.5Y-104.5
X140.5Y-55.5
X140.5Y-58.04
X140.5Y-60.58
X140.5Y-63.12
X140.5Y-65.66
X140.5Y-68.2
X140.5Y-70.74
X140.5Y-73.28
X140.5Y-75.82
X142.5Y-102.0
X142.5Y-104.54
X148.0Y-84.0
X148.0Y-86.54
X148.0Y-89.08
X148.0Y-91.62
X148.0Y-94.16
X148.0Y-96.7
X159.0Y-83.96
X159.0Y-86.5
X159.0Y-89.04
X159.0Y-91.58
X159.0Y-94.12
X159.0Y-96.66
X164.5Y-101.96
X164.5Y-104.5
X168.5Y-102.0
X168.5Y-104.54
X174.0Y-83.96
X174.0Y-86.5
X174.0Y-89.04
X174.0Y-91.58
X174.0Y-94.12
X174.0Y-96.66
M30
